# xmcd CD database file
#
# Track frame offsets:
#	150
#	8768
#	31776
#	47887
#	65669
#	82467
#	101588
#	127201
#	144978
#	164991
#
# Disc length: 2435 seconds
#
# Revision: 0
# Processed by: cddbd v1.5.1PL0 Copyright (c) Steve Scherf et al.
# Submitted via: CDex 1.50
#
DISCID=9309810a
DTITLE=WAVEDRIVE - 隠野乃寿詞
DYEAR=2005
DGENRE=Game
TTITLE0=不思議の国のアリス
TTITLE1=スペイン人形裁判
TTITLE2=月時計　〜 ルナ・ダイアル
TTITLE3=U.N.オーエンは彼女なのか？ (TOMATO JUICE MIX)
TTITLE4=ぼさぼさこいむすめ
TTITLE5=天空の花の都
TTITLE6=Twilight Septet
TTITLE7=3776
TTITLE8=お松権現招来 (PHANRASMA CAT MIX)
TTITLE9=幽雅に咲かせ、墨染めの桜
EXTD=YEAR: 2005
EXTT0=
EXTT1=
EXTT2=
EXTT3=
EXTT4=
EXTT5=
EXTT6=
EXTT7=
EXTT8=
EXTT9=
PLAYORDER=
